solid wood_block
  facet normal 0 0 -1
    outer loop
      vertex -3 -1.8 -0.7
      vertex 3 1.8 -0.7
      vertex 3 -1.8 -0.7
    endloop
  endfacet
  facet normal 0 0 -1
    outer loop
      vertex -3 -1.8 -0.7
      vertex -3 1.8 -0.7
      vertex 3 1.8 -0.7
    endloop
  endfacet
  facet normal 0 0 1
    outer loop
      vertex -3 -1.8 0.7
      vertex 3 -1.8 0.7
      vertex 3 1.8 0.7
    endloop
  endfacet
  facet normal 0 0 1
    outer loop
      vertex -3 -1.8 0.7
      vertex 3 1.8 0.7
      vertex -3 1.8 0.7
    endloop
  endfacet
  facet normal 0 -1 0
    outer loop
      vertex -3 -1.8 -0.7
      vertex 3 -1.8 -0.7
      vertex 3 -1.8 0.7
    endloop
  endfacet
  facet normal 0 -1 0
    outer loop
      vertex -3 -1.8 -0.7
      vertex 3 -1.8 0.7
      vertex -3 -1.8 0.7
    endloop
  endfacet
  facet normal 0 1 0
    outer loop
      vertex -3 1.8 -0.7
      vertex 3 1.8 0.7
      vertex 3 1.8 -0.7
    endloop
  endfacet
  facet normal 0 1 0
    outer loop
      vertex -3 1.8 -0.7
      vertex -3 1.8 0.7
      vertex 3 1.8 0.7
    endloop
  endfacet
  facet normal 1 0 0
    outer loop
      vertex 3 -1.8 -0.7
      vertex 3 1.8 -0.7
      vertex 3 1.8 0.7
    endloop
  endfacet
  facet normal 1 0 0
    outer loop
      vertex 3 -1.8 -0.7
      vertex 3 1.8 0.7
      vertex 3 -1.8 0.7
    endloop
  endfacet
  facet normal -1 0 0
    outer loop
      vertex -3 -1.8 -0.7
      vertex -3 1.8 0.7
      vertex -3 1.8 -0.7
    endloop
  endfacet
  facet normal -1 0 0
    outer loop
      vertex -3 -1.8 -0.7
      vertex -3 -1.8 0.7
      vertex -3 1.8 0.7
    endloop
  endfacet
endsolid wood_block
