solid sphere
  facet normal -0.257344 -0.960422 -0.106596
    outer loop
      vertex 0.000000 1.000000 0.000000
      vertex 0.500000 0.866025 0.000000
      vertex 0.353553 0.866025 0.353553
    endloop
  endfacet
  facet normal -0.106596 -0.960422 -0.257344
    outer loop
      vertex 0.000000 1.000000 0.000000
      vertex 0.353553 0.866025 0.353553
      vertex 0.000000 0.866025 0.500000
    endloop
  endfacet
  facet normal 0.106596 -0.960422 -0.257344
    outer loop
      vertex 0.000000 1.000000 0.000000
      vertex 0.000000 0.866025 0.500000
      vertex -0.353553 0.866025 0.353553
    endloop
  endfacet
  facet normal 0.257344 -0.960422 -0.106596
    outer loop
      vertex 0.000000 1.000000 0.000000
      vertex -0.353553 0.866025 0.353553
      vertex -0.500000 0.866025 0.000000
    endloop
  endfacet
  facet normal 0.257344 -0.960422 0.106596
    outer loop
      vertex 0.000000 1.000000 0.000000
      vertex -0.500000 0.866025 0.000000
      vertex -0.353553 0.866025 -0.353553
    endloop
  endfacet
  facet normal 0.106596 -0.960422 0.257344
    outer loop
      vertex 0.000000 1.000000 0.000000
      vertex -0.353553 0.866025 -0.353553
      vertex -0.000000 0.866025 -0.500000
    endloop
  endfacet
  facet normal -0.106596 -0.960422 0.257344
    outer loop
      vertex 0.000000 1.000000 0.000000
      vertex -0.000000 0.866025 -0.500000
      vertex 0.353553 0.866025 -0.353553
    endloop
  endfacet
  facet normal -0.257344 -0.960422 0.106596
    outer loop
      vertex 0.000000 1.000000 0.000000
      vertex 0.353553 0.866025 -0.353553
      vertex 0.500000 0.866025 0.000000
    endloop
  endfacet
  facet normal -0.678598 -0.678598 -0.281085
    outer loop
      vertex 0.500000 0.866025 0.000000
      vertex 0.866025 0.500000 0.000000
      vertex 0.353553 0.866025 0.353553
    endloop
  endfacet
  facet normal -0.678598 -0.678598 -0.281085
    outer loop
      vertex 0.353553 0.866025 0.353553
      vertex 0.866025 0.500000 0.000000
      vertex 0.612372 0.500000 0.612372
    endloop
  endfacet
  facet normal -0.281085 -0.678598 -0.678598
    outer loop
      vertex 0.353553 0.866025 0.353553
      vertex 0.612372 0.500000 0.612372
      vertex 0.000000 0.866025 0.500000
    endloop
  endfacet
  facet normal -0.281085 -0.678598 -0.678598
    outer loop
      vertex 0.000000 0.866025 0.500000
      vertex 0.612372 0.500000 0.612372
      vertex 0.000000 0.500000 0.866025
    endloop
  endfacet
  facet normal 0.281085 -0.678598 -0.678598
    outer loop
      vertex 0.000000 0.866025 0.500000
      vertex 0.000000 0.500000 0.866025
      vertex -0.353553 0.866025 0.353553
    endloop
  endfacet
  facet normal 0.281085 -0.678598 -0.678598
    outer loop
      vertex -0.353553 0.866025 0.353553
      vertex 0.000000 0.500000 0.866025
      vertex -0.612372 0.500000 0.612372
    endloop
  endfacet
  facet normal 0.678598 -0.678598 -0.281085
    outer loop
      vertex -0.353553 0.866025 0.353553
      vertex -0.612372 0.500000 0.612372
      vertex -0.500000 0.866025 0.000000
    endloop
  endfacet
  facet normal 0.678598 -0.678598 -0.281085
    outer loop
      vertex -0.500000 0.866025 0.000000
      vertex -0.612372 0.500000 0.612372
      vertex -0.866025 0.500000 0.000000
    endloop
  endfacet
  facet normal 0.678598 -0.678598 0.281085
    outer loop
      vertex -0.500000 0.866025 0.000000
      vertex -0.866025 0.500000 0.000000
      vertex -0.353553 0.866025 -0.353553
    endloop
  endfacet
  facet normal 0.678598 -0.678598 0.281085
    outer loop
      vertex -0.353553 0.866025 -0.353553
      vertex -0.866025 0.500000 0.000000
      vertex -0.612372 0.500000 -0.612372
    endloop
  endfacet
  facet normal 0.281085 -0.678598 0.678598
    outer loop
      vertex -0.353553 0.866025 -0.353553
      vertex -0.612372 0.500000 -0.612372
      vertex -0.000000 0.866025 -0.500000
    endloop
  endfacet
  facet normal 0.281085 -0.678598 0.678598
    outer loop
      vertex -0.000000 0.866025 -0.500000
      vertex -0.612372 0.500000 -0.612372
      vertex -0.000000 0.500000 -0.866025
    endloop
  endfacet
  facet normal -0.281085 -0.678598 0.678598
    outer loop
      vertex -0.000000 0.866025 -0.500000
      vertex -0.000000 0.500000 -0.866025
      vertex 0.353553 0.866025 -0.353553
    endloop
  endfacet
  facet normal -0.281085 -0.678598 0.678598
    outer loop
      vertex 0.353553 0.866025 -0.353553
      vertex -0.000000 0.500000 -0.866025
      vertex 0.612372 0.500000 -0.612372
    endloop
  endfacet
  facet normal -0.678598 -0.678598 0.281085
    outer loop
      vertex 0.353553 0.866025 -0.353553
      vertex 0.612372 0.500000 -0.612372
      vertex 0.500000 0.866025 0.000000
    endloop
  endfacet
  facet normal -0.678598 -0.678598 0.281085
    outer loop
      vertex 0.500000 0.866025 0.000000
      vertex 0.612372 0.500000 -0.612372
      vertex 0.866025 0.500000 0.000000
    endloop
  endfacet
  facet normal -0.896809 -0.240299 -0.371470
    outer loop
      vertex 0.866025 0.500000 0.000000
      vertex 1.000000 0.000000 0.000000
      vertex 0.612372 0.500000 0.612372
    endloop
  endfacet
  facet normal -0.896809 -0.240299 -0.371470
    outer loop
      vertex 0.612372 0.500000 0.612372
      vertex 1.000000 0.000000 0.000000
      vertex 0.707107 0.000000 0.707107
    endloop
  endfacet
  facet normal -0.371470 -0.240299 -0.896809
    outer loop
      vertex 0.612372 0.500000 0.612372
      vertex 0.707107 0.000000 0.707107
      vertex 0.000000 0.500000 0.866025
    endloop
  endfacet
  facet normal -0.371470 -0.240299 -0.896809
    outer loop
      vertex 0.000000 0.500000 0.866025
      vertex 0.707107 0.000000 0.707107
      vertex 0.000000 0.000000 1.000000
    endloop
  endfacet
  facet normal 0.371470 -0.240299 -0.896809
    outer loop
      vertex 0.000000 0.500000 0.866025
      vertex 0.000000 0.000000 1.000000
      vertex -0.612372 0.500000 0.612372
    endloop
  endfacet
  facet normal 0.371470 -0.240299 -0.896809
    outer loop
      vertex -0.612372 0.500000 0.612372
      vertex 0.000000 0.000000 1.000000
      vertex -0.707107 0.000000 0.707107
    endloop
  endfacet
  facet normal 0.896809 -0.240299 -0.371470
    outer loop
      vertex -0.612372 0.500000 0.612372
      vertex -0.707107 0.000000 0.707107
      vertex -0.866025 0.500000 0.000000
    endloop
  endfacet
  facet normal 0.896809 -0.240299 -0.371470
    outer loop
      vertex -0.866025 0.500000 0.000000
      vertex -0.707107 0.000000 0.707107
      vertex -1.000000 0.000000 0.000000
    endloop
  endfacet
  facet normal 0.896809 -0.240299 0.371470
    outer loop
      vertex -0.866025 0.500000 0.000000
      vertex -1.000000 0.000000 0.000000
      vertex -0.612372 0.500000 -0.612372
    endloop
  endfacet
  facet normal 0.896809 -0.240299 0.371470
    outer loop
      vertex -0.612372 0.500000 -0.612372
      vertex -1.000000 0.000000 0.000000
      vertex -0.707107 0.000000 -0.707107
    endloop
  endfacet
  facet normal 0.371470 -0.240299 0.896809
    outer loop
      vertex -0.612372 0.500000 -0.612372
      vertex -0.707107 0.000000 -0.707107
      vertex -0.000000 0.500000 -0.866025
    endloop
  endfacet
  facet normal 0.371470 -0.240299 0.896809
    outer loop
      vertex -0.000000 0.500000 -0.866025
      vertex -0.707107 0.000000 -0.707107
      vertex -0.000000 0.000000 -1.000000
    endloop
  endfacet
  facet normal -0.371470 -0.240299 0.896809
    outer loop
      vertex -0.000000 0.500000 -0.866025
      vertex -0.000000 0.000000 -1.000000
      vertex 0.612372 0.500000 -0.612372
    endloop
  endfacet
  facet normal -0.371470 -0.240299 0.896809
    outer loop
      vertex 0.612372 0.500000 -0.612372
      vertex -0.000000 0.000000 -1.000000
      vertex 0.707107 0.000000 -0.707107
    endloop
  endfacet
  facet normal -0.896809 -0.240299 0.371470
    outer loop
      vertex 0.612372 0.500000 -0.612372
      vertex 0.707107 0.000000 -0.707107
      vertex 0.866025 0.500000 0.000000
    endloop
  endfacet
  facet normal -0.896809 -0.240299 0.371470
    outer loop
      vertex 0.866025 0.500000 0.000000
      vertex 0.707107 0.000000 -0.707107
      vertex 1.000000 0.000000 0.000000
    endloop
  endfacet
  facet normal -0.896809 0.240299 -0.371470
    outer loop
      vertex 1.000000 0.000000 0.000000
      vertex 0.866025 -0.500000 0.000000
      vertex 0.707107 0.000000 0.707107
    endloop
  endfacet
  facet normal -0.896809 0.240299 -0.371470
    outer loop
      vertex 0.707107 0.000000 0.707107
      vertex 0.866025 -0.500000 0.000000
      vertex 0.612372 -0.500000 0.612372
    endloop
  endfacet
  facet normal -0.371470 0.240299 -0.896809
    outer loop
      vertex 0.707107 0.000000 0.707107
      vertex 0.612372 -0.500000 0.612372
      vertex 0.000000 0.000000 1.000000
    endloop
  endfacet
  facet normal -0.371470 0.240299 -0.896809
    outer loop
      vertex 0.000000 0.000000 1.000000
      vertex 0.612372 -0.500000 0.612372
      vertex 0.000000 -0.500000 0.866025
    endloop
  endfacet
  facet normal 0.371470 0.240299 -0.896809
    outer loop
      vertex 0.000000 0.000000 1.000000
      vertex 0.000000 -0.500000 0.866025
      vertex -0.707107 0.000000 0.707107
    endloop
  endfacet
  facet normal 0.371470 0.240299 -0.896809
    outer loop
      vertex -0.707107 0.000000 0.707107
      vertex 0.000000 -0.500000 0.866025
      vertex -0.612372 -0.500000 0.612372
    endloop
  endfacet
  facet normal 0.896809 0.240299 -0.371470
    outer loop
      vertex -0.707107 0.000000 0.707107
      vertex -0.612372 -0.500000 0.612372
      vertex -1.000000 0.000000 0.000000
    endloop
  endfacet
  facet normal 0.896809 0.240299 -0.371470
    outer loop
      vertex -1.000000 0.000000 0.000000
      vertex -0.612372 -0.500000 0.612372
      vertex -0.866025 -0.500000 0.000000
    endloop
  endfacet
  facet normal 0.896809 0.240299 0.371470
    outer loop
      vertex -1.000000 0.000000 0.000000
      vertex -0.866025 -0.500000 0.000000
      vertex -0.707107 0.000000 -0.707107
    endloop
  endfacet
  facet normal 0.896809 0.240299 0.371470
    outer loop
      vertex -0.707107 0.000000 -0.707107
      vertex -0.866025 -0.500000 0.000000
      vertex -0.612372 -0.500000 -0.612372
    endloop
  endfacet
  facet normal 0.371470 0.240299 0.896809
    outer loop
      vertex -0.707107 0.000000 -0.707107
      vertex -0.612372 -0.500000 -0.612372
      vertex -0.000000 0.000000 -1.000000
    endloop
  endfacet
  facet normal 0.371470 0.240299 0.896809
    outer loop
      vertex -0.000000 0.000000 -1.000000
      vertex -0.612372 -0.500000 -0.612372
      vertex -0.000000 -0.500000 -0.866025
    endloop
  endfacet
  facet normal -0.371470 0.240299 0.896809
    outer loop
      vertex -0.000000 0.000000 -1.000000
      vertex -0.000000 -0.500000 -0.866025
      vertex 0.707107 0.000000 -0.707107
    endloop
  endfacet
  facet normal -0.371470 0.240299 0.896809
    outer loop
      vertex 0.707107 0.000000 -0.707107
      vertex -0.000000 -0.500000 -0.866025
      vertex 0.612372 -0.500000 -0.612372
    endloop
  endfacet
  facet normal -0.896809 0.240299 0.371470
    outer loop
      vertex 0.707107 0.000000 -0.707107
      vertex 0.612372 -0.500000 -0.612372
      vertex 1.000000 0.000000 0.000000
    endloop
  endfacet
  facet normal -0.896809 0.240299 0.371470
    outer loop
      vertex 1.000000 0.000000 0.000000
      vertex 0.612372 -0.500000 -0.612372
      vertex 0.866025 -0.500000 0.000000
    endloop
  endfacet
  facet normal -0.678598 0.678598 -0.281085
    outer loop
      vertex 0.866025 -0.500000 0.000000
      vertex 0.500000 -0.866025 0.000000
      vertex 0.612372 -0.500000 0.612372
    endloop
  endfacet
  facet normal -0.678598 0.678598 -0.281085
    outer loop
      vertex 0.612372 -0.500000 0.612372
      vertex 0.500000 -0.866025 0.000000
      vertex 0.353553 -0.866025 0.353553
    endloop
  endfacet
  facet normal -0.281085 0.678598 -0.678598
    outer loop
      vertex 0.612372 -0.500000 0.612372
      vertex 0.353553 -0.866025 0.353553
      vertex 0.000000 -0.500000 0.866025
    endloop
  endfacet
  facet normal -0.281085 0.678598 -0.678598
    outer loop
      vertex 0.000000 -0.500000 0.866025
      vertex 0.353553 -0.866025 0.353553
      vertex 0.000000 -0.866025 0.500000
    endloop
  endfacet
  facet normal 0.281085 0.678598 -0.678598
    outer loop
      vertex 0.000000 -0.500000 0.866025
      vertex 0.000000 -0.866025 0.500000
      vertex -0.612372 -0.500000 0.612372
    endloop
  endfacet
  facet normal 0.281085 0.678598 -0.678598
    outer loop
      vertex -0.612372 -0.500000 0.612372
      vertex 0.000000 -0.866025 0.500000
      vertex -0.353553 -0.866025 0.353553
    endloop
  endfacet
  facet normal 0.678598 0.678598 -0.281085
    outer loop
      vertex -0.612372 -0.500000 0.612372
      vertex -0.353553 -0.866025 0.353553
      vertex -0.866025 -0.500000 0.000000
    endloop
  endfacet
  facet normal 0.678598 0.678598 -0.281085
    outer loop
      vertex -0.866025 -0.500000 0.000000
      vertex -0.353553 -0.866025 0.353553
      vertex -0.500000 -0.866025 0.000000
    endloop
  endfacet
  facet normal 0.678598 0.678598 0.281085
    outer loop
      vertex -0.866025 -0.500000 0.000000
      vertex -0.500000 -0.866025 0.000000
      vertex -0.612372 -0.500000 -0.612372
    endloop
  endfacet
  facet normal 0.678598 0.678598 0.281085
    outer loop
      vertex -0.612372 -0.500000 -0.612372
      vertex -0.500000 -0.866025 0.000000
      vertex -0.353553 -0.866025 -0.353553
    endloop
  endfacet
  facet normal 0.281085 0.678598 0.678598
    outer loop
      vertex -0.612372 -0.500000 -0.612372
      vertex -0.353553 -0.866025 -0.353553
      vertex -0.000000 -0.500000 -0.866025
    endloop
  endfacet
  facet normal 0.281085 0.678598 0.678598
    outer loop
      vertex -0.000000 -0.500000 -0.866025
      vertex -0.353553 -0.866025 -0.353553
      vertex -0.000000 -0.866025 -0.500000
    endloop
  endfacet
  facet normal -0.281085 0.678598 0.678598
    outer loop
      vertex -0.000000 -0.500000 -0.866025
      vertex -0.000000 -0.866025 -0.500000
      vertex 0.612372 -0.500000 -0.612372
    endloop
  endfacet
  facet normal -0.281085 0.678598 0.678598
    outer loop
      vertex 0.612372 -0.500000 -0.612372
      vertex -0.000000 -0.866025 -0.500000
      vertex 0.353553 -0.866025 -0.353553
    endloop
  endfacet
  facet normal -0.678598 0.678598 0.281085
    outer loop
      vertex 0.612372 -0.500000 -0.612372
      vertex 0.353553 -0.866025 -0.353553
      vertex 0.866025 -0.500000 0.000000
    endloop
  endfacet
  facet normal -0.678598 0.678598 0.281085
    outer loop
      vertex 0.866025 -0.500000 0.000000
      vertex 0.353553 -0.866025 -0.353553
      vertex 0.500000 -0.866025 0.000000
    endloop
  endfacet
  facet normal -0.257344 0.960422 -0.106596
    outer loop
      vertex 0.000000 -1.000000 0.000000
      vertex 0.353553 -0.866025 0.353553
      vertex 0.500000 -0.866025 0.000000
    endloop
  endfacet
  facet normal -0.106596 0.960422 -0.257344
    outer loop
      vertex 0.000000 -1.000000 0.000000
      vertex 0.000000 -0.866025 0.500000
      vertex 0.353553 -0.866025 0.353553
    endloop
  endfacet
  facet normal 0.106596 0.960422 -0.257344
    outer loop
      vertex 0.000000 -1.000000 0.000000
      vertex -0.353553 -0.866025 0.353553
      vertex 0.000000 -0.866025 0.500000
    endloop
  endfacet
  facet normal 0.257344 0.960422 -0.106596
    outer loop
      vertex 0.000000 -1.000000 0.000000
      vertex -0.500000 -0.866025 0.000000
      vertex -0.353553 -0.866025 0.353553
    endloop
  endfacet
  facet normal 0.257344 0.960422 0.106596
    outer loop
      vertex 0.000000 -1.000000 0.000000
      vertex -0.353553 -0.866025 -0.353553
      vertex -0.500000 -0.866025 0.000000
    endloop
  endfacet
  facet normal 0.106596 0.960422 0.257344
    outer loop
      vertex 0.000000 -1.000000 0.000000
      vertex -0.000000 -0.866025 -0.500000
      vertex -0.353553 -0.866025 -0.353553
    endloop
  endfacet
  facet normal -0.106596 0.960422 0.257344
    outer loop
      vertex 0.000000 -1.000000 0.000000
      vertex 0.353553 -0.866025 -0.353553
      vertex -0.000000 -0.866025 -0.500000
    endloop
  endfacet
  facet normal -0.257344 0.960422 0.106596
    outer loop
      vertex 0.000000 -1.000000 0.000000
      vertex 0.500000 -0.866025 0.000000
      vertex 0.353553 -0.866025 -0.353553
    endloop
  endfacet
endsolid sphere
